<svg id="visual" viewBox="0 0 1920 1080" width="1920" height="1080" xmlns="http://www.w3.org/2000/svg" xmlns:xlink="http://www.w3.org/1999/xlink" version="1.1"><rect x="0" y="0" width="1920" height="1080" fill="#001220"></rect><defs><linearGradient id="grad1_0" x1="43.8%" y1="0%" x2="100%" y2="100%"><stop offset="14.444444444444446%" stop-color="#001220" stop-opacity="1"></stop><stop offset="85.55555555555554%" stop-color="#001220" stop-opacity="1"></stop></linearGradient></defs><defs><linearGradient id="grad2_0" x1="0%" y1="0%" x2="56.3%" y2="100%"><stop offset="14.444444444444446%" stop-color="#001220" stop-opacity="1"></stop><stop offset="85.55555555555554%" stop-color="#001220" stop-opacity="1"></stop></linearGradient></defs><g transform="translate(1920, 0)"><path d="M0 540C-39.3 503.2 -78.6 466.4 -121.4 453C-164.1 439.6 -210.3 449.6 -256 443.4C-301.7 437.2 -346.9 414.8 -381.8 381.8C-416.8 348.8 -441.5 305.2 -450.3 260C-459.2 214.8 -452.3 168.1 -464.6 124.5C-476.9 80.9 -508.5 40.5 -540 0L0 0Z" fill="#FBAE3C"></path></g><g transform="translate(0, 1080)"><path d="M0 -540C40.5 -503.7 80.9 -467.3 120.6 -450.1C160.3 -432.9 199.3 -434.8 249 -431.3C298.7 -427.8 359.2 -418.9 381.8 -381.8C404.4 -344.8 389.1 -279.6 410.5 -237C431.9 -194.4 490 -174.5 517.7 -138.7C545.4 -103 542.7 -51.5 540 0L0 0Z" fill="#FBAE3C"></path></g></svg>